<svg xmlns="http://www.w3.org/2000/svg" width="206" height="179" viewBox="0 0 206 179"><defs><style>.a,.d,.e,.f{fill:#fff;stroke-width:4px;}.a{stroke:#2dce98;}.b,.c{fill:#4d4f5c;font-size:13px;}.b{font-family:SegoeUI-Bold, Segoe UI;font-weight:700;}.c{font-family:SegoeUI, Segoe UI;}.d{stroke:#f53c56;}.e{stroke:#11cdef;}.f{stroke:#feb969;}.g{stroke:none;}.h{fill:none;}</style></defs><g transform="translate(-770 -2739)"><g class="a" transform="translate(770 2741)"><circle class="g" cx="7" cy="7" r="7"/><circle class="h" cx="7" cy="7" r="5"/></g><text class="b" transform="translate(794 2753)"><tspan x="0" y="0">Completed</tspan></text><text class="c" transform="translate(922 2753)"><tspan x="0" y="0">4 courses</tspan></text><g class="d" transform="translate(770 2795)"><circle class="g" cx="7" cy="7" r="7"/><circle class="h" cx="7" cy="7" r="5"/></g><text class="b" transform="translate(794 2807)"><tspan x="0" y="0">Not available</tspan></text><text class="c" transform="translate(922 2807)"><tspan x="0" y="0">2 courses</tspan></text><g transform="translate(8 -262)"><g class="e" transform="translate(762 3111)"><circle class="g" cx="7" cy="7" r="7"/><circle class="h" cx="7" cy="7" r="5"/></g><text class="b" transform="translate(786 3123)"><tspan x="0" y="0">Paid courses</tspan></text></g><g transform="translate(8 -208)"><g class="f" transform="translate(762 3111)"><circle class="g" cx="7" cy="7" r="7"/><circle class="h" cx="7" cy="7" r="5"/></g><text class="b" transform="translate(786 3123)"><tspan x="0" y="0">Yet to complete</tspan></text></g><text class="c" transform="translate(922 2861)"><tspan x="0" y="0">1 courses</tspan></text><text class="c" transform="translate(922 2915)"><tspan x="0" y="0">1 courses</tspan></text></g></svg>