<svg xmlns="http://www.w3.org/2000/svg" width="1040" height="1088" viewBox="0 0 1040 1088"><defs><style>.a{fill:#302ea7;}.b{fill:#ee4f3c;}.b,.c,.d,.e,.f{stroke:#707070;}.c{fill:#ffcb26;}.d{fill:#21c1f3;}.e,.g{fill:#6b5acc;}.f{fill:#fec245;}.h{fill:#5645ba;}.i{stroke:none;}.j{fill:none;}</style></defs><g transform="translate(-880)"><rect class="a" width="822" height="1088" transform="translate(1098)"/><g class="b" transform="translate(1291 141)"><circle class="i" cx="218.5" cy="218.5" r="218.5"/><circle class="j" cx="218.5" cy="218.5" r="218"/></g><g class="c" transform="translate(880 416)"><circle class="i" cx="218.5" cy="218.5" r="218.5"/><circle class="j" cx="218.5" cy="218.5" r="218"/></g><g class="d" transform="translate(1702 215)"><path class="i" d="M92,0H218a0,0,0,0,1,0,0V84A143,143,0,0,1,75,227H0a0,0,0,0,1,0,0V92A92,92,0,0,1,92,0Z"/><path class="j" d="M92,.5H217a.5.5,0,0,1,.5.5V84A142.5,142.5,0,0,1,75,226.5H1a.5.5,0,0,1-.5-.5V92A91.5,91.5,0,0,1,92,.5Z"/></g><g class="d" transform="translate(1098 626)"><path class="i" d="M92,0H218a0,0,0,0,1,0,0V84A143,143,0,0,1,75,227H0a0,0,0,0,1,0,0V92A92,92,0,0,1,92,0Z"/><path class="j" d="M92,.5H217a.5.5,0,0,1,.5.5V84A142.5,142.5,0,0,1,75,226.5H1a.5.5,0,0,1-.5-.5V92A91.5,91.5,0,0,1,92,.5Z"/></g><g class="e" transform="translate(1702 442)"><path class="i" d="M0,0H75A143,143,0,0,1,218,143v84a0,0,0,0,1,0,0H92A92,92,0,0,1,0,135V0A0,0,0,0,1,0,0Z"/><path class="j" d="M1,.5H75A142.5,142.5,0,0,1,217.5,143v83a.5.5,0,0,1-.5.5H92A91.5,91.5,0,0,1,.5,135V1A.5.5,0,0,1,1,.5Z"/></g><g class="e" transform="translate(1098 853)"><path class="i" d="M0,0H75A143,143,0,0,1,218,143v84a0,0,0,0,1,0,0H92A92,92,0,0,1,0,135V0A0,0,0,0,1,0,0Z"/><path class="j" d="M1,.5H75A142.5,142.5,0,0,1,217.5,143v83a.5.5,0,0,1-.5.5H92A91.5,91.5,0,0,1,.5,135V1A.5.5,0,0,1,1,.5Z"/></g><g class="f" transform="translate(1483 643)"><circle class="i" cx="218.5" cy="218.5" r="218.5"/><circle class="j" cx="218.5" cy="218.5" r="218"/></g><g transform="translate(2113 138)"><circle class="g" cx="144" cy="144" r="144" transform="translate(-1173 -18)"/><path class="h" d="M207,0h0a208.53,208.53,0,0,0-41.718,4.206A205.867,205.867,0,0,0,91.265,35.353a207.605,207.605,0,0,0-75,91.074A205.958,205.958,0,0,0,4.206,165.283a209.018,209.018,0,0,0,0,83.435,205.866,205.866,0,0,0,31.147,74.018,207.6,207.6,0,0,0,91.074,75A205.958,205.958,0,0,0,165.282,409.8,208.527,208.527,0,0,0,207,414V0Z" transform="translate(-808 276.001) rotate(180)"/></g></g></svg>