<svg xmlns="http://www.w3.org/2000/svg" xmlns:xlink="http://www.w3.org/1999/xlink" width="270" height="270" viewBox="0 0 270 270"><defs><style>.a,.g{fill:#fff;}.a{stroke:#7764e4;}.b{clip-path:url(#a);}.c{fill:#f53c56;}.d{fill:#2dce98;}.e{fill:#feb969;}.f{fill:#11cdef;}.g{stroke:#fff;}.h,.i{fill:#172b4d;font-family:SegoeUI, Segoe UI;}.h{font-size:18px;}.i{font-size:13px;}.j{stroke:none;}.k{fill:none;}</style><clipPath id="a"><circle class="a" cx="135" cy="135" r="135"/></clipPath></defs><g transform="translate(-617 -2855)"><g class="b" transform="translate(617 2855)"><g transform="translate(-24.134 -23.408)"><path class="c" d="M639.138,2837l104.238,158.786H905.948V2837Z" transform="translate(-586.541 -2836.735)"/><path class="d" d="M757.363,2995.845H598.229V2836.794h53.029Z" transform="translate(-598.229 -2836.794)"/><path class="e" d="M599,2960.5v158.223H856.005L812.59,2960.5Z" transform="translate(-598.009 -2801.449)"/><path class="f" d="M771.661,2960.5l-29.411,70.926,71.161,88.032h60.5V2960.5Z" transform="translate(-557.08 -2801.449)"/></g></g><g class="g" transform="translate(672 2910)"><circle class="j" cx="80" cy="80" r="80"/><circle class="k" cx="80" cy="80" r="79.5"/></g><g transform="translate(0 2)"><text class="h" transform="translate(727 2987)"><tspan x="0" y="0">30 %</tspan></text><text class="i" transform="translate(692 3005)"><tspan x="0" y="0">Total achievements</tspan></text></g></g></svg>